<?xml version="1.0" standalone="no"?><svg xmlns="http://www.w3.org/2000/svg" viewBox="0 0 1440 320"><path fill="#0d6efd" fill-opacity="1" d="M0,224L24,224C48,224,96,224,144,208C192,192,240,160,288,165.3C336,171,384,213,432,197.3C480,181,528,107,576,90.7C624,75,672,117,720,133.3C768,149,816,139,864,128C912,117,960,107,1008,117.3C1056,128,1104,160,1152,170.7C1200,181,1248,171,1296,165.3C1344,160,1392,160,1416,160L1440,160L1440,320L1416,320C1392,320,1344,320,1296,320C1248,320,1200,320,1152,320C1104,320,1056,320,1008,320C960,320,912,320,864,320C816,320,768,320,720,320C672,320,624,320,576,320C528,320,480,320,432,320C384,320,336,320,288,320C240,320,192,320,144,320C96,320,48,320,24,320L0,320Z"></path></svg>